<?xml version="1.0" encoding="UTF-8" standalone="no"?>
<svg width="82px" height="89px" viewBox="0 0 82 89" version="1.1" xmlns="http://www.w3.org/2000/svg" xmlns:xlink="http://www.w3.org/1999/xlink">
    <!-- Generator: Sketch 44.1 (41455) - http://www.bohemiancoding.com/sketch -->
    <title>picnic-basket</title>
    <desc>Created with Sketch.</desc>
    <defs>
        <filter x="-18.8%" y="-14.5%" width="160.9%" height="158.0%" filterUnits="objectBoundingBox" id="filter-1">
            <feOffset dx="8" dy="11" in="SourceAlpha" result="shadowOffsetOuter1"></feOffset>
            <feGaussianBlur stdDeviation="4.5" in="shadowOffsetOuter1" result="shadowBlurOuter1"></feGaussianBlur>
            <feColorMatrix values="0 0 0 0 0   0 0 0 0 0   0 0 0 0 0  0 0 0 0.5 0" type="matrix" in="shadowBlurOuter1" result="shadowMatrixOuter1"></feColorMatrix>
            <feMerge>
                <feMergeNode in="shadowMatrixOuter1"></feMergeNode>
                <feMergeNode in="SourceGraphic"></feMergeNode>
            </feMerge>
        </filter>
    </defs>
    <g id="Page-1" stroke="none" stroke-width="1" fill="none" fill-rule="evenodd">
        <g id="Tablet-Portrait" transform="translate(-591.000000, -1078.000000)" fill-rule="nonzero">
            <g id="Group-8" transform="translate(550.000000, 1078.000000)">
                <g id="picnic-basket" filter="url(#filter-1)" transform="translate(42.000000, 0.000000)">
                    <path d="M59.296875,32.34375 L3.234375,32.34375 C2.63898047,32.34375 2.15625,32.8264805 2.15625,33.421875 L2.15625,59.296875 C2.15625,64.6472051 6.50904492,69 11.859375,69 L50.671875,69 C56.0222051,69 60.375,64.6472051 60.375,59.296875 L60.375,33.421875 C60.375,32.8264805 59.8922695,32.34375 59.296875,32.34375 Z" id="Shape" fill="#FFD761"></path>
                    <path d="M5.390625,59.296875 L5.390625,33.421875 C5.390625,32.8264805 5.87335547,32.34375 6.46875,32.34375 L3.234375,32.34375 C2.63898047,32.34375 2.15625,32.8264805 2.15625,33.421875 L2.15625,59.296875 C2.15625,64.6472051 6.50904492,69 11.859375,69 L15.09375,69 C9.74341992,69 5.390625,64.6472051 5.390625,59.296875 Z" id="Shape" fill="#FFCB2E"></path>
                    <path d="M62.53125,26.953125 L31.265625,26.953125 C30.6702305,26.953125 30.1875,27.4358555 30.1875,28.03125 L30.1875,33.421875 C30.1875,34.0172695 30.6702305,34.5 31.265625,34.5 L62.53125,34.5 C63.1266445,34.5 63.609375,34.0172695 63.609375,33.421875 L63.609375,28.03125 C63.609375,27.4358555 63.1266445,26.953125 62.53125,26.953125 Z" id="Shape" fill="#FC8626"></path>
                    <path d="M62.53125,32.34375 L31.265625,32.34375 C30.6702305,32.34375 30.1875,31.8610195 30.1875,31.265625 L30.1875,33.421875 C30.1875,34.0172695 30.6702305,34.5 31.265625,34.5 L62.53125,34.5 C63.1266445,34.5 63.609375,34.0172695 63.609375,33.421875 L63.609375,31.265625 C63.609375,31.8610195 63.1266445,32.34375 62.53125,32.34375 Z" id="Shape" fill="#F27611"></path>
                    <path d="M29.6983008,26.0500605 L4.90142578,9.87818555 C4.42570313,9.56795508 3.79082227,9.67994531 3.45,10.134375 L0.215625,14.446875 C0.0367910156,14.6852754 -0.0353085937,14.9870156 0.0163066406,15.2805352 C0.067921875,15.5740547 0.238669922,15.8330742 0.488121094,15.9961406 L28.5193711,34.3242656 C28.6980703,34.4411074 28.9034531,34.5 29.109375,34.5 C29.2853789,34.5 29.4617871,34.4570098 29.622293,34.3702207 C29.9705273,34.1818184 30.1875,33.8178164 30.1875,33.421875 L30.1875,26.953125 C30.1875,26.5887187 30.0035449,26.2491094 29.6983008,26.0500605 Z" id="Shape" fill="#FC8626"></path>
                    <path d="M1.13445703,13.2217207 L0.215625,14.446875 C0.0367910156,14.6852754 -0.0353085937,14.9870156 0.0163066406,15.2805352 C0.067921875,15.5740547 0.238669922,15.8330742 0.488121094,15.9961406 L28.5193711,34.3242656 C28.6980703,34.4411074 28.9034531,34.5 29.109375,34.5 C29.2853789,34.5 29.4617871,34.4570098 29.622293,34.3702207 C29.9705273,34.1818184 30.1875,33.8178164 30.1875,33.421875 L30.1875,32.0669414 L1.13445703,13.2217207 Z" id="Shape" fill="#F27611"></path>
                    <path d="M33.421875,0 L29.109375,0 C28.5139805,0 28.03125,0.482730469 28.03125,1.078125 L28.03125,45.28125 C28.03125,45.8766445 28.5139805,46.359375 29.109375,46.359375 L33.421875,46.359375 C34.0172695,46.359375 34.5,45.8766445 34.5,45.28125 L34.5,1.078125 C34.5,0.482730469 34.0172695,0 33.421875,0 Z" id="Shape" fill="#A0998D"></path>
                    <path d="M30.1875,45.28125 L30.1875,1.078125 C30.1875,0.482730469 30.6702305,0 31.265625,0 L29.109375,0 C28.5139805,0 28.03125,0.482730469 28.03125,1.078125 L28.03125,45.28125 C28.03125,45.8766445 28.5139805,46.359375 29.109375,46.359375 L31.265625,46.359375 C30.6702305,46.359375 30.1875,45.8766445 30.1875,45.28125 Z" id="Shape" fill="#938A7D"></path>
                    <path d="M31.265625,40.96875 C27.6987832,40.96875 24.796875,43.8706582 24.796875,47.4375 C24.796875,51.0043418 27.6987832,53.90625 31.265625,53.90625 C34.8326016,53.90625 37.734375,51.0043418 37.734375,47.4375 C37.734375,43.8706582 34.8326016,40.96875 31.265625,40.96875 Z" id="Shape" fill="#FC8626"></path>
                    <path d="M31.265625,43.125 C28.8876855,43.125 26.953125,45.0595605 26.953125,47.4375 C26.953125,49.8154395 28.8876855,51.75 31.265625,51.75 C33.6435645,51.75 35.578125,49.8154395 35.578125,47.4375 C35.578125,45.0595605 33.6435645,43.125 31.265625,43.125 Z" id="Shape" fill="#F27611"></path>
                    <path d="M31.265625,44.203125 C29.4821367,44.203125 28.03125,45.6540117 28.03125,47.4375 C28.03125,49.2209883 29.4821367,50.671875 31.265625,50.671875 C33.0489785,50.671875 34.5,49.2209883 34.5,47.4375 C34.5,45.6540117 33.0489785,44.203125 31.265625,44.203125 Z" id="Shape" fill="#857B6D"></path>
                    <g id="Group" transform="translate(4.851562, 35.578125)" fill="#FC8626">
                        <path d="M31.0898906,5.02716211 L36.304916,10.2421875 L35.4023906,11.1447129 C35.0076621,11.5394414 35.0076621,12.1794434 35.4023906,12.5740371 C35.7918633,12.963375 36.442377,12.963375 36.8318496,12.5740371 L37.7342402,11.6716465 L42.2346035,16.171875 L37.6908457,20.6439375 L33.2845488,16.2376406 C32.8896855,15.8429121 32.2498184,15.8429121 31.8550898,16.2376406 C31.4603613,16.6323691 31.4603613,17.2723711 31.8550898,17.6669648 L36.2615215,22.0733965 L31.8046875,26.601791 L27.304459,22.1015625 L29.8241719,19.5818496 C30.2189004,19.1871211 30.2189004,18.5471191 29.8241719,18.1525254 C29.4293086,17.7577969 28.7894414,17.7577969 28.3947129,18.1525254 L25.875,20.6721035 L22.8162246,17.6133281 C22.4214961,17.2185996 21.7814941,17.2185996 21.3869004,17.6133281 C20.9921719,18.0080566 20.9921719,18.6480586 21.3869004,19.0426523 L24.445541,22.1015625 L22.4648906,24.0822129 C22.0701621,24.4769414 22.0701621,25.1169434 22.4648906,25.5115371 C22.8542285,25.900875 23.504877,25.900875 23.8942148,25.5115371 L25.875,23.5310215 L30.3752285,28.03125 L30.0117656,28.3947129 C29.6170371,28.7894414 29.6170371,29.4294434 30.0117656,29.8240371 C30.4012383,30.213375 31.051752,30.213375 31.4412246,29.8240371 L31.8045527,29.460709 L32.1678809,29.8240371 C32.5573535,30.213375 33.2078672,30.213375 33.5973398,29.8240371 C33.9920684,29.4293086 33.9920684,28.7893066 33.5973398,28.3947129 L33.2341465,28.03125 L37.6908457,23.5028555 L42.1970039,28.0369102 L41.2944785,28.9394355 C40.89975,29.3341641 40.89975,29.974166 41.2944785,30.3687598 C41.6839512,30.7580977 42.3344648,30.7580977 42.7239375,30.3687598 L43.6263281,29.4663691 L43.9896563,29.8296973 C44.3791289,30.2190352 45.0296426,30.2190352 45.4191152,29.8296973 C45.8138438,29.4349688 45.8138438,28.7949668 45.4191152,28.400373 L45.0556523,28.0369102 L49.5994102,23.5648477 C49.7844434,23.7498809 49.9790449,23.8983926 50.245207,23.9416523 C50.563793,23.9934023 50.8945078,23.8869375 51.1228008,23.6587793 C51.5175293,23.2640508 51.5175293,22.6240488 51.1228008,22.2294551 L51.0288691,22.1355234 L52.2009258,20.9634668 C52.5956543,20.5687383 52.5956543,19.9287363 52.2009258,19.5341426 C51.8060625,19.1394141 51.1661953,19.1394141 50.7714668,19.5341426 L49.5995449,20.7060645 L45.0935215,16.171875 L49.59375,11.6716465 L50.4961406,12.5740371 C50.8856133,12.963375 51.536127,12.963375 51.9255996,12.5740371 C52.3203281,12.1793086 52.3203281,11.5393066 51.9255996,11.1447129 L51.023209,10.2421875 L52.4647969,8.80059961 C52.8595254,8.40587109 52.8595254,7.76586914 52.4647969,7.37127539 C52.0699336,6.97654688 51.4300664,6.97654688 51.0353379,7.37127539 L49.59375,8.81272852 L45.0935215,4.3125 L47.6132344,1.79278711 C48.0079629,1.39805859 48.0079629,0.758056641 47.6132344,0.363462891 C47.2183711,-0.031265625 46.5785039,-0.031265625 46.1837754,0.363462891 L43.6640625,2.88304102 L41.1444844,0.363462891 C40.7496211,-0.031265625 40.1097539,-0.031265625 39.7150254,0.363462891 C39.3202969,0.758191406 39.3202969,1.39819336 39.7150254,1.79278711 L42.2346035,4.3125 L37.734375,8.81272852 L32.5194844,3.59783789 C32.1246211,3.20310938 31.4847539,3.20310938 31.0900254,3.59783789 C30.6952969,3.99243164 30.6952969,4.63256836 31.0898906,5.02716211 Z M48.1702207,22.1353887 L43.6264629,26.6074512 L39.1203047,22.0733965 L43.6640625,17.601334 L48.1702207,22.1353887 Z M43.6640625,5.74195898 L48.164291,10.2421875 L43.6640625,14.742416 L39.163834,10.2421875 L43.6640625,5.74195898 Z" id="Shape"></path>
                        <path d="M15.4817402,22.1123437 L19.8881719,17.7059121 C20.2829004,17.3111836 20.2829004,16.6711816 19.8881719,16.2765879 C19.4934434,15.8818594 18.8534414,15.8818594 18.4588477,16.2765879 L14.052416,20.6830195 L9.51485742,16.1517949 L14.0152207,11.6514316 L14.9177461,12.553957 C15.307084,12.9432949 15.9577324,12.9432949 16.3470703,12.553957 C16.7417988,12.1592285 16.7417988,11.5192266 16.3470703,11.1246328 L15.4445449,10.2221074 L20.6595703,5.00708203 C21.0542988,4.61235352 21.0542988,3.97235156 20.6595703,3.57775781 C20.2648418,3.1830293 19.6248398,3.1830293 19.2302461,3.57775781 L14.0152207,8.7927832 L9.49248633,4.27004883 L12.0121992,1.75033594 C12.4069277,1.35560742 12.4069277,0.715605469 12.0121992,0.321011719 C11.6174707,-0.0737167969 10.9774687,-0.0737167969 10.582875,0.321011719 L8.06316211,2.84072461 L5.54331445,0.320742187 C5.14858594,-0.0739863281 4.50858398,-0.0739863281 4.11399023,0.320742187 C3.71926172,0.715470703 3.71926172,1.35547266 4.11399023,1.75006641 L6.63370313,4.2697793 L2.13333984,8.77014258 L1.74912305,8.38592578 C1.35439453,7.99119727 0.714392578,7.99119727 0.319798828,8.38592578 C-0.0749296875,8.7806543 -0.0749296875,9.42065625 0.319798828,9.81525 L0.704015625,10.1994668 L0.462919922,10.4405625 C0.0681914062,10.835291 0.0681914062,11.475293 0.462919922,11.8698867 C0.852257812,12.2592246 1.50290625,12.2592246 1.89224414,11.8698867 L2.13333984,11.628791 L6.65607422,16.1515254 L2.16002344,20.6475762 L1.98509766,20.4726504 C1.59036914,20.0779219 0.950367187,20.0779219 0.555773437,20.4726504 C0.161044922,20.8673789 0.161044922,21.5073809 0.555773437,21.9019746 L0.730699219,22.0769004 L0.636767578,22.170832 C0.242039062,22.5655605 0.242039062,23.2055625 0.636767578,23.6001562 C0.864925781,23.8284492 1.19577539,23.9347793 1.51422656,23.8830293 C1.78038867,23.8397695 1.97499023,23.6912578 2.16002344,23.5062246 L6.69758203,28.0374492 L6.33411914,28.4009121 C5.93939062,28.7956406 5.93939062,29.4356426 6.33411914,29.8302363 C6.72345703,30.2195742 7.37410547,30.2195742 7.76344336,29.8302363 L8.12690625,29.4667734 L9.02943164,30.3692988 C9.41876953,30.7586367 10.069418,30.7586367 10.4587559,30.3692988 C10.8534844,29.9745703 10.8534844,29.3345684 10.4587559,28.9399746 L9.55623047,28.0374492 L14.0522813,23.5413984 L20.3787188,29.8741699 C20.7680566,30.2635078 21.4187051,30.2635078 21.808043,29.8741699 C22.2027715,29.4794414 22.2027715,28.8394395 21.808043,28.4448457 L15.4817402,22.1123437 Z M3.56266406,10.1994668 L8.06302734,5.69910352 L12.5857617,10.2218379 L8.08539844,14.7222012 L3.56266406,10.1994668 Z M8.12704102,26.6082598 L3.58948242,22.0770352 L8.0855332,17.5809844 L12.6230918,22.112209 L8.12704102,26.6082598 Z" id="Shape"></path>
                    </g>
                </g>
            </g>
        </g>
    </g>
</svg>