<?xml version="1.0" encoding="UTF-8" standalone="no"?>
<svg width="87px" height="89px" viewBox="0 0 87 89" version="1.1" xmlns="http://www.w3.org/2000/svg" xmlns:xlink="http://www.w3.org/1999/xlink">
    <!-- Generator: Sketch 44.1 (41455) - http://www.bohemiancoding.com/sketch -->
    <title>gift</title>
    <desc>Created with Sketch.</desc>
    <defs>
        <filter x="-15.9%" y="-14.5%" width="155.1%" height="158.0%" filterUnits="objectBoundingBox" id="filter-1">
            <feOffset dx="8" dy="11" in="SourceAlpha" result="shadowOffsetOuter1"></feOffset>
            <feGaussianBlur stdDeviation="4.5" in="shadowOffsetOuter1" result="shadowBlurOuter1"></feGaussianBlur>
            <feColorMatrix values="0 0 0 0 0   0 0 0 0 0   0 0 0 0 0  0 0 0 0.5 0" type="matrix" in="shadowBlurOuter1" result="shadowMatrixOuter1"></feColorMatrix>
            <feMerge>
                <feMergeNode in="shadowMatrixOuter1"></feMergeNode>
                <feMergeNode in="SourceGraphic"></feMergeNode>
            </feMerge>
        </filter>
    </defs>
    <g id="Page-1" stroke="none" stroke-width="1" fill="none" fill-rule="evenodd">
        <g id="Tablet-Portrait" transform="translate(-587.000000, -1260.000000)" fill-rule="nonzero">
            <g id="Group-9" transform="translate(548.000000, 1260.000000)">
                <g id="gift" filter="url(#filter-1)" transform="translate(40.000000, 0.000000)">
                    <polygon id="Shape" fill="#FDD835" points="2.15252673 18.2964772 34.4401545 34.4402911 66.7277822 18.2964772 66.7277822 52.7366317 34.4401545 68.8801723 2.15252673 52.7363584"></polygon>
                    <polygon id="Shape" fill="#C54B42" points="2.15252673 21.5249941 2.15252673 31.5879267 34.3324871 47.3550416 66.7276455 31.5340931 66.7276455 21.5249941 34.4401545 37.3460792"></polygon>
                    <polygon id="Shape" fill="#F9A825" points="34.4401545 68.8801723 34.4401545 34.4402911 4.30505347 19.3727406 2.15252673 19.3727406 2.15252673 52.7366317"></polygon>
                    <polygon id="Shape" fill="#BB483E" points="2.15252673 21.5249941 2.15252673 31.5879267 34.3324871 47.3550416 34.4401545 47.3012079 34.4401545 37.2921089 34.4401545 37.3459426"></polygon>
                    <polygon id="Shape" fill="#FDD835" points="0 17.1663802 34.4401545 0.000136633663 68.8803089 17.1663802 68.8803089 19.4265743 34.4401545 36.5925446 0 19.4802713"></polygon>
                    <path d="M54.1893208,5.4351505 C53.0592238,3.39029109 50.6376653,2.15252673 47.7855743,2.15252673 C41.274297,2.15252673 36.7002119,8.23340792 34.4400178,12.1079287 C32.1798238,8.23340792 27.5520416,2.2063604 21.0944614,2.2063604 C16.9509089,2.2063604 13.9911505,4.73558614 13.9911505,8.17957426 C13.9911505,14.3141525 20.7177624,18.2963406 34.2246832,18.2963406 C47.731604,18.2963406 54.8887485,13.1841921 54.8887485,8.23340792 C54.8888851,7.26481188 54.6736871,6.29621584 54.1893208,5.4351505 Z M22.4937267,12.0542317 C20.9869307,11.031802 20.4488673,9.90170495 20.4488673,9.14830693 C20.4488673,8.23354455 21.3099327,7.5339802 22.5475604,7.5339802 C25.4534851,7.5339802 27.7673762,11.3546673 29.0588376,13.9915604 C25.6686832,13.7223921 23.6775208,12.8074931 22.4937267,12.0542317 Z M46.3864455,12.0542317 C45.2025149,12.8076297 43.2114891,13.7223921 39.8213347,13.9914238 C41.0589624,11.3546673 43.3729901,7.53384356 46.3326119,7.53384356 C47.5702396,7.53384356 48.431305,8.23340792 48.431305,9.1481703 C48.4314416,9.90170495 47.8932416,11.0316653 46.3864455,12.0542317 Z" id="Shape" fill="#EFEFEF"></path>
                    <polygon id="Shape" fill="#F9A825" points="0 17.2202139 34.4401545 34.0635921 68.8803089 17.2202139 68.8803089 28.3594099 34.3324871 45.2027881 0 28.3594099"></polygon>
                    <polygon id="Shape" fill="#EFEFEF" points="47.3551782 29.2203386 47.3551782 27.9827109 34.4401545 20.9870673 21.5251307 27.9827109 21.5251307 29.2203386 12.9151604 25.4534851 12.9151604 23.7314911 34.0096218 12.592295 34.4401545 12.8074931 34.8706871 12.592295 55.9651485 23.6776574 55.9651485 25.3996515"></polygon>
                    <polygon id="Shape" fill="#DCDCDC" points="47.3551782 27.9827109 47.3551782 62.3690317 55.9651485 58.0639782 55.9651485 23.6776574"></polygon>
                    <path d="M12.9150238,58.1176752 L21.5249941,62.4227287 L21.5249941,28.0365446 L12.9150238,23.6776574 C12.9150238,23.6775208 12.9150238,58.1176752 12.9150238,58.1176752 Z" id="Shape" fill="#D1D1D1"></path>
                </g>
            </g>
        </g>
    </g>
</svg>