<?xml version="1.0" encoding="UTF-8" standalone="no"?>
<svg width="85px" height="89px" viewBox="0 0 85 89" version="1.1" xmlns="http://www.w3.org/2000/svg" xmlns:xlink="http://www.w3.org/1999/xlink">
    <!-- Generator: Sketch 44.1 (41455) - http://www.bohemiancoding.com/sketch -->
    <title>guitar</title>
    <desc>Created with Sketch.</desc>
    <defs>
        <filter x="-15.9%" y="-14.5%" width="155.1%" height="158.0%" filterUnits="objectBoundingBox" id="filter-1">
            <feOffset dx="8" dy="11" in="SourceAlpha" result="shadowOffsetOuter1"></feOffset>
            <feGaussianBlur stdDeviation="4.5" in="shadowOffsetOuter1" result="shadowBlurOuter1"></feGaussianBlur>
            <feColorMatrix values="0 0 0 0 0   0 0 0 0 0   0 0 0 0 0  0 0 0 0.5 0" type="matrix" in="shadowBlurOuter1" result="shadowMatrixOuter1"></feColorMatrix>
            <feMerge>
                <feMergeNode in="shadowMatrixOuter1"></feMergeNode>
                <feMergeNode in="SourceGraphic"></feMergeNode>
            </feMerge>
        </filter>
    </defs>
    <g id="Page-1" stroke="none" stroke-width="1" fill="none" fill-rule="evenodd">
        <g id="Tablet-Portrait" transform="translate(-354.000000, -1031.000000)" fill-rule="nonzero">
            <g id="Group-6" transform="translate(315.000000, 1031.000000)">
                <g id="guitar" filter="url(#filter-1)" transform="translate(40.000000, 0.000000)">
                    <path d="M40.4331135,48.079111 L43.0320212,45.4473058 C48.4923832,39.9178252 48.4923832,30.952932 43.0320212,25.4232697 L22.778236,37.3519877 L6.33685202,62.5829347 C14.1373436,70.4821666 26.7844516,70.4821666 34.5849432,62.5829347 C38.5357063,58.5823436 40.4839001,53.3225494 40.4331135,48.079111 Z" id="Shape" fill="#F9A825"></path>
                    <path d="M23.2581061,25.4236332 L20.6591985,28.0554384 C15.4814824,28.0036455 10.2874357,29.9768634 6.33667257,33.9776362 C-1.46381901,41.8768682 -1.46381901,54.6840661 6.33667257,62.5832981 L43.0316622,25.4238149 C37.5714797,19.8939709 28.7184682,19.8939709 23.2581061,25.4236332 Z" id="Shape" fill="#FDD835"></path>
                    <path d="M36.9019227,31.6309644 L28.4275671,35.9217773 L24.1902099,44.503585 C27.694841,48.0525785 33.3972916,48.0525785 36.9019227,44.503585 C40.4065538,40.9544097 40.4065538,35.1799579 36.9019227,31.6309644 Z" id="Shape" fill="#FFF9C4"></path>
                    <path d="M24.1902099,31.6309644 C20.6855788,35.1799579 20.6855788,40.9545914 24.1902099,44.503585 L36.9019227,31.6309644 C33.3972916,28.0819709 27.6950204,28.0819709 24.1902099,31.6309644 Z" id="Shape" fill="#FFFFFF"></path>
                    <path d="M34.0772571,34.4913852 L29.3693616,36.8751298 L27.0154138,41.642619 C28.9625308,43.614383 32.130499,43.6142013 34.0774366,41.642619 C36.0240152,39.6712184 36.0240152,36.4631492 34.0772571,34.4913852 Z" id="Shape" fill="#000000"></path>
                    <path d="M27.0150549,34.4913852 C25.0681173,36.4629675 25.0679379,39.6712184 27.0150549,41.6428007 L34.0770776,34.4913852 C32.1301401,32.5199846 28.9621718,32.5199846 27.0150549,34.4913852 Z" id="Shape" fill="#263238"></path>
                    <polygon id="Shape" fill="#FF7043" points="32.6647449 35.9217773 29.8398999 33.0611748 48.0720931 14.5981943 54.5652347 16.6046687"></polygon>
                    <polygon id="Shape" fill="#E64A19" points="35.4895899 38.7821982 32.6647449 35.9217773 53.0156167 15.3132995 53.7217831 20.3192177"></polygon>
                    <g id="Group" transform="translate(48.044277, 0.175604)" fill="#FFFFFF">
                        <polygon id="Shape" points="5.67750597 2.98036222 8.50235098 0.119759677 11.327196 2.98036222 11.327196 8.70138556"></polygon>
                        <rect id="Rectangle-path" transform="translate(4.265772, 10.130875) rotate(135.000000) translate(-4.265772, -10.130875) " x="2.26833621" y="6.08552681" width="3.99487146" height="8.09069718"></rect>
                    </g>
                    <g id="Group" transform="translate(53.607468, 8.716886)" fill="#FFF9C4">
                        <polygon id="Shape" points="5.76400462 0.160103604 11.4135152 0.160103604 14.2383602 3.02070614 11.4135152 5.88130868"></polygon>
                        <rect id="Rectangle-path" transform="translate(4.350955, 7.311871) rotate(135.000000) translate(-4.350955, -7.311871) " x="2.3535194" y="3.26652224" width="3.99487146" height="8.09069718"></rect>
                    </g>
                    <polygon id="Shape" fill="#E64A19" points="65.0209837 8.87698926 56.5466281 17.4586151 50.8971175 14.5981943 62.1961387 6.01656845"></polygon>
                    <polygon id="Shape" fill="#FF7043" points="62.1961387 6.01656845 52.3094503 16.0284047 50.8971175 11.7375918 59.3714731 3.15596591"></polygon>
                    <polygon id="Shape" fill="#FFF9C4" points="56.5466281 17.4586151 53.7217831 20.3192177 50.8971175 17.4586151 51.7956627 15.5082952 53.7217831 14.5981943"></polygon>
                    <rect id="Rectangle-path" fill="#FFFFFF" transform="translate(50.897340, 14.596078) rotate(135.000000) translate(-50.897340, -14.596078) " x="48.8999042" y="12.5733584" width="3.99487146" height="4.04543945"></rect>
                    <polygon id="Shape" fill="#E64A19" points="24.8965557 56.6609186 22.0717107 59.5215211 15.7158543 53.0852108 16.6147583 51.1348909 18.5406993 50.2246083"></polygon>
                    <rect id="Rectangle-path" fill="#FF7043" transform="translate(13.951184, 48.438321) rotate(135.000000) translate(-13.951184, -48.438321) " x="11.9537487" y="43.8873152" width="3.99487146" height="9.10201161"></rect>
                </g>
            </g>
        </g>
    </g>
</svg>