<?xml version="1.0" encoding="UTF-8" standalone="no"?>
<svg width="396px" height="118px" viewBox="0 0 396 118" version="1.1" xmlns="http://www.w3.org/2000/svg" xmlns:xlink="http://www.w3.org/1999/xlink">
    <!-- Generator: Sketch 44.1 (41455) - http://www.bohemiancoding.com/sketch -->
    <title>herotitle</title>
    <desc>Created with Sketch.</desc>
    <defs></defs>
    <g id="Page-1" stroke="none" stroke-width="1" fill="none" fill-rule="evenodd">
        <g id="herotitle" fill-rule="nonzero">
            <g id="man" transform="translate(156.000000, 0.000000)">
                <g id="Body" transform="translate(0.000000, 95.238579)">
                    <path d="M43.1946944,0.367177665 L43.1946944,22.5523756 L0.536305556,22.5523756 C0.536305556,13.5729949 23.0055972,0.367177665 43.1946944,0.367177665 Z" id="Shape" fill="#D58E64"></path>
                    <path d="M43.1946944,0.367177665 L43.1946944,22.5523756 L85.8524861,22.5523756 C85.8524861,13.5729949 63.3825972,0.367177665 43.1946944,0.367177665 Z" id="Shape" fill="#D58E64"></path>
                    <path d="M43.1946944,0.367177665 C38.9006667,0.367177665 34.5039167,0.96915736 30.2415417,1.99701523 C30.2702083,2.03475127 34.96975,8.1144467 43.1946944,8.1144467 C50.8116667,8.1144467 55.8755139,2.90807107 56.6095,2.10662944 C52.2031944,1.00988832 47.6434028,0.367177665 43.1946944,0.367177665 Z" id="Shape" fill="#BF805A"></path>
                    <path d="M24.4944722,3.65919797 C11.2325556,8.15278173 0.536902778,16.3570761 0.536902778,22.5523756 L24.4956667,22.5523756 L24.4956667,3.65919797 L24.4944722,3.65919797 Z" id="Shape" fill="#744A25"></path>
                    <path d="M25.7707361,22.5523756 L25.7707361,2.30369543 C25.7707361,2.30369543 22.3474583,3.62445685 21.1625694,4.2402132 L17.6688194,22.5517766 L25.7707361,22.5517766 L25.7707361,22.5523756 Z" id="Shape" fill="#573514"></path>
                    <path d="M61.8949167,3.65919797 C75.1568333,8.15278173 85.8524861,16.3570761 85.8524861,22.5523756 L61.8937222,22.5523756 L61.8937222,3.65919797 L61.8949167,3.65919797 Z" id="Shape" fill="#744A25"></path>
                    <path d="M60.6180556,22.5523756 L60.6180556,2.30369543 C60.6180556,2.30369543 64.0413333,3.62445685 65.2262222,4.2402132 L68.7199722,22.5517766 L60.6180556,22.5517766 L60.6180556,22.5523756 Z" id="Shape" fill="#573514"></path>
                </g>
                <g id="Neck" transform="translate(34.041667, 87.451777)">
                    <rect id="Rectangle-path" fill="#FDCC9B" x="0.375055556" y="0.231208122" width="17.5553472" height="8.75356345"></rect>
                    <path d="M0.375055556,8.92187817 C0.375055556,8.92187817 2.94251389,12.115665 9.15243056,12.115665 C15.3623472,12.115665 17.9304028,8.92187817 17.9304028,8.92187817 C17.9304028,8.92187817 8.82336111,5.59691371 0.375055556,8.92187817 Z" id="Shape" fill="#FDCC9B"></path>
                    <path d="M0.375055556,3.15305584 C0.375055556,3.15305584 7.75970833,7.27047716 17.9304028,6.17852792 L17.9304028,3.22613198 L0.375055556,3.15305584 Z" id="Shape" fill="#FCBC85"></path>
                </g>
                <g id="Face">
                    <ellipse id="Oval" fill="#FCBC85" cx="9.10286111" cy="57.1048122" rx="8.56595833" ry="9.8017868"></ellipse>
                    <ellipse id="Oval" fill="#FCBC85" cx="77.2859306" cy="57.1048122" rx="8.56595833" ry="9.8017868"></ellipse>
                    <path d="M77.2518889,38.3829442 C77.2518889,23.9450152 66.7186806,13.3813198 43.1946944,13.3813198 C19.6707083,13.3813198 9.1375,23.9456142 9.1375,38.3829442 C9.1375,52.8208731 6.67993056,90.8522132 43.1946944,90.8522132 C79.7094583,90.8522132 77.2518889,52.8214721 77.2518889,38.3829442 Z" id="Shape" fill="#FDCC9B"></path>
                    <g id="Group" transform="translate(20.305556, 39.532995)">
                        <g id="Oval" transform="translate(2.388889, 10.781726)">
                            <ellipse fill="#3B2519" cx="3.91180556" cy="4.44326904" rx="3.68665278" ry="4.04973604"></ellipse>
                            <ellipse fill="#FFFFFF" cx="2.30468056" cy="2.65529949" rx="1.10247222" ry="1.10572589"></ellipse>
                        </g>
                        <path d="M0.403125,5.18840609 C2.14641667,6.06292386 4.94559722,2.21744162 11.3531944,5.56277157 C12.5213611,6.17253807 13.2183194,0.346812183 6.35026389,0.346812183 C0.403125,0.346812183 -0.650375,4.66070051 0.403125,5.18840609 Z" id="Shape" fill="#86461B"></path>
                        <g id="Oval" transform="translate(35.833333, 10.781726)">
                            <ellipse fill="#3B2519" cx="4.09933333" cy="4.44326904" rx="3.68665278" ry="4.04973604"></ellipse>
                            <ellipse fill="#FFFFFF" cx="2.49220833" cy="2.65529949" rx="1.10247222" ry="1.10572589"></ellipse>
                        </g>
                        <path d="M45.3751528,5.18840609 C43.6318611,6.06292386 40.8326806,2.21744162 34.4250833,5.56277157 C33.2569167,6.17253807 32.5599583,0.346812183 39.4286111,0.346812183 C45.3751528,0.346812183 46.4280556,4.66070051 45.3751528,5.18840609 Z" id="Shape" fill="#86461B"></path>
                    </g>
                    <path d="M43.1946944,69.0018477 C39.5516389,69.0018477 37.3574444,66.2722741 37.3574444,67.5930355 C37.3574444,68.913198 38.4109444,71.4223452 43.1946944,71.4223452 C47.9784444,71.4223452 49.0319444,68.913198 49.0319444,67.5930355 C49.0319444,66.2728731 46.8371528,69.0018477 43.1946944,69.0018477 Z" id="Shape" fill="#FCBC85"></path>
                    <path d="M43.1946944,81.143868 C41.9345556,81.143868 41.1754861,80.199868 41.1754861,80.6568934 C41.1754861,81.1139188 41.5397917,81.9818477 43.1946944,81.9818477 C44.8495972,81.9818477 45.2133056,81.1139188 45.2133056,80.6568934 C45.2133056,80.199868 44.4542361,81.143868 43.1946944,81.143868 Z" id="Shape" fill="#FCBC85"></path>
                    <path d="M43.1946944,77.7793706 C37.42075,77.7793706 33.9419306,75.4211675 33.9419306,76.0189543 C33.9419306,76.6161421 35.6117639,78.9683553 43.1946944,78.9683553 C50.777625,78.9683553 52.4474583,76.6161421 52.4474583,76.0189543 C52.4468611,75.4205685 48.9686389,77.7793706 43.1946944,77.7793706 Z" id="Shape" fill="#F7945E"></path>
                    <path d="M43.1940972,83.3247716 L43.1940972,91.5122944 C24.8492222,91.5122944 18.7933889,81.7021218 16.9993333,78.9677563 C15.6693194,76.9389949 25.6303889,86.0980711 34.4167222,86.0980711 C38.2789583,86.0980711 38.103375,83.3247716 43.1940972,83.3247716 Z" id="Shape" fill="#86461B"></path>
                    <path d="M43.1940972,83.3247716 L43.1940972,91.5122944 C61.5395694,91.5122944 67.5954028,81.7021218 69.3888611,78.9677563 C70.718875,76.9389949 60.7578056,86.0980711 51.9714722,86.0980711 C48.1098333,86.0980711 48.2854167,83.3247716 43.1940972,83.3247716 Z" id="Shape" fill="#86461B"></path>
                    <path d="M43.4252222,28.8752589 L43.4252222,0 C13.3503056,0 7.73283333,11.2687005 6.32816667,32.3966904 C4.9235,53.5252792 8.09475,60.7987513 10.1957778,60.771797 C12.2968056,60.7442437 11.1674583,36.5488528 14.0526389,31.3400812 C19.3195417,21.8323959 28.7341528,28.8752589 43.4252222,28.8752589 Z" id="Shape" fill="#86461B"></path>
                    <path d="M42.4252222,28.8752589 L42.4252222,0 C72.5001389,0 78.1176111,11.2687005 79.5222778,32.3966904 C80.9269444,53.5252792 77.7556944,60.7987513 75.6546667,60.771797 C73.5536389,60.7442437 74.6829861,36.5488528 71.7978056,31.3400812 C66.5315,21.8323959 57.1162917,28.8752589 42.4252222,28.8752589 Z" id="Shape" fill="#86461B"></path>
                </g>
            </g>
            <path d="M15.5935416,66.243652 C15.3142434,65.558102 14.9714733,64.936038 14.5652213,64.377441 C13.574982,63.069818 12.483196,62.416016 11.2898307,62.416016 C10.5154128,62.416016 9.73465884,62.701657 8.94754553,63.272949 C7.44949116,64.339361 6.16092983,66.192858 5.08182287,68.833496 C3.95193441,71.550307 3.38699865,74.216296 3.38699865,76.831543 C3.38699865,79.345227 3.79324459,81.439933 4.60574865,83.115723 C5.50712035,84.969248 6.73855335,85.895996 8.30008459,85.895996 C9.02372102,85.895996 9.8298653,85.565921 10.7185416,84.905762 C12.115033,83.852046 13.314728,82.322276 14.3176627,80.316406 C14.3430535,80.240234 14.381139,80.164063 14.4319205,80.087891 C14.7239142,79.592771 15.1492029,79.345215 15.7077994,79.345215 C15.9744023,79.345215 16.228306,79.408691 16.4695182,79.535645 C16.9773332,79.827638 17.2312369,80.27197 17.2312369,80.868652 C17.2312369,81.084474 17.167761,81.33203 17.0408072,81.611328 C16.2283032,83.337899 15.2507739,84.804193 14.1081901,86.010254 C12.2038837,88.003428 10.1599588,89 7.97635412,89 C7.69705585,89 7.41776177,88.980957 7.1384635,88.942871 C5.1833756,88.663573 3.56473944,87.501963 2.28250647,85.458008 C0.860624357,83.185536 0.149693966,80.341814 0.149693966,76.926758 C0.149693966,74.895498 0.441683233,72.838878 1.02567053,70.756836 C1.9397376,67.481429 3.34890319,64.764659 5.25320959,62.606445 C7.24638362,60.372059 9.35378442,59.254883 11.5754752,59.254883 C12.5276284,59.254883 13.4353342,59.464353 14.2986197,59.883301 C16.1267539,60.797368 17.4978339,62.517565 18.411901,65.043945 C18.513464,65.285157 18.5642447,65.520018 18.5642447,65.748535 C18.5642447,66.015138 18.4944212,66.269042 18.3547721,66.510254 C18.0500831,67.018069 17.6120992,67.271973 17.0408072,67.271973 C16.45682,67.233887 15.9744029,66.891117 15.5935416,66.243652 Z M22.149685,83.020508 C22.149685,82.588865 22.1750754,82.131838 22.2258569,81.649414 C22.4924598,79.465809 23.1779998,77.529794 24.2824975,75.841309 C25.6282074,73.784658 27.2468435,72.756348 29.1384546,72.756348 C29.9509586,72.756348 30.661889,72.915037 31.2712671,73.232422 C31.5251746,72.927733 31.8742922,72.769043 32.3186303,72.756348 C32.5725379,72.756348 32.7312277,72.77539 32.7947046,72.813477 C33.3406057,72.991212 33.6135522,73.530757 33.6135522,74.432129 C33.6135522,74.800295 33.5500763,75.593744 33.4231225,76.8125 C33.0295659,80.417987 32.8327905,82.658687 32.8327905,83.534668 C32.8327905,84.118655 32.9533948,84.664548 33.1946069,85.172363 C33.5500774,85.934086 34.0197993,86.314941 34.6037866,86.314941 C34.718045,86.314941 34.8386492,86.302246 34.965603,86.276855 C35.3464643,86.200683 35.8923573,85.908694 36.6032983,85.400879 C37.301544,84.893064 37.8601321,84.63916 38.2790796,84.63916 C38.4441194,84.63916 38.6155044,84.696288 38.7932397,84.810547 C39.1614056,85.064454 39.3454858,85.400877 39.3454858,85.819824 C39.3073997,86.479984 38.8059398,87.165524 37.8410913,87.876465 C36.6858121,88.688969 35.4607267,89.095215 34.1657983,89.095215 C32.5661809,89.082519 31.3855287,88.276375 30.6238061,86.676758 C30.4460709,86.892579 30.2429479,87.108397 30.0144311,87.324219 C28.7575889,88.504889 27.4817227,89.095215 26.1867944,89.095215 C25.3742903,89.095215 24.6697075,88.885744 24.0730249,88.466797 C22.7907919,87.527339 22.149685,85.711928 22.149685,83.020508 Z M30.5285913,76.755371 L30.6618921,75.460449 C30.3825938,75.3208 30.0906045,75.250977 29.7859155,75.250977 C29.5573987,75.250977 29.3225378,75.282715 29.0813257,75.346191 C27.9006557,75.676271 26.9040836,76.768057 26.0915796,78.621582 C25.3679431,80.284676 25.0061303,81.954093 25.0061303,83.629883 L25.0061303,83.820312 C25.0442165,85.369148 25.4377672,86.143555 26.1867944,86.143555 C26.5803511,86.130859 27.0627681,85.915041 27.63406,85.496094 C28.2180473,85.077146 28.643336,84.683596 28.9099389,84.31543 C29.0749788,84.074218 29.2971446,83.369635 29.5764428,82.20166 C30.0842579,80.030751 30.4016375,78.215339 30.5285913,76.755371 Z M38.8366878,87.019531 L40.4553401,74.793945 C40.4807309,74.578124 40.5124689,74.375001 40.550555,74.18457 C40.7790718,73.092768 41.274184,72.546875 42.0359066,72.546875 C42.1755557,72.546875 42.3152027,72.55957 42.4548519,72.584961 C43.0388392,72.72461 43.3308284,73.276851 43.3308284,74.241699 C43.3308284,74.381348 43.3181332,74.622557 43.2927425,74.965332 C43.2800471,75.193849 43.2736995,75.371581 43.2736995,75.498535 C43.2990903,75.447754 43.3308282,75.396973 43.3689144,75.346191 C44.3083722,73.683097 45.6477143,72.851562 47.3869808,72.851562 C48.0090542,72.851562 48.5803375,73.035643 49.100848,73.403809 C49.8752659,73.975101 50.2624691,74.730464 50.2624691,75.669922 C50.2624691,75.822266 50.2561215,76.184079 50.2434261,76.755371 C50.2307307,78.050299 50.2243831,79.078609 50.2243831,79.840332 C50.2243831,82.430189 50.3005542,83.953611 50.4528987,84.410645 C50.4909849,84.512208 50.5290704,84.620117 50.5671566,84.734375 C50.9226271,85.699224 51.4240869,86.181641 52.0715511,86.181641 C52.1858095,86.181641 52.3127613,86.168945 52.4524105,86.143555 C52.8332717,86.067382 53.3791647,85.769046 54.0901058,85.248535 C54.7883515,84.753415 55.3469396,84.505859 55.765887,84.505859 C55.9309269,84.505859 56.0896167,84.550293 56.2419612,84.63916 C56.6355179,84.867677 56.8322933,85.242185 56.8322933,85.762695 C56.756121,86.384769 56.2229232,87.070309 55.2326839,87.819336 C54.0647093,88.606449 52.8904046,89 51.7097347,89 C50.7575815,89 49.9514372,88.739749 49.2912776,88.219238 C47.9328724,87.127436 47.25368,84.734393 47.25368,81.040039 C47.25368,80.773436 47.2600276,80.3418 47.272723,79.745117 C47.2981137,79.123044 47.3108089,78.602541 47.3108089,78.183594 C47.3108089,76.825189 47.1584667,76.126953 46.8537776,76.088867 C46.8029961,76.088867 46.7395202,76.101562 46.663348,76.126953 C45.9397115,76.393556 45.012963,77.83446 43.8830745,80.449707 C42.8928352,82.74757 42.2580759,84.658196 41.9787776,86.181641 L41.9406917,86.733887 C41.9026056,87.19092 41.7756537,87.609861 41.5598323,87.990723 C41.1916664,88.600101 40.7346398,88.904785 40.1887386,88.904785 C40.0363941,88.904785 39.8840518,88.873047 39.7317073,88.80957 C39.1350247,88.530272 38.8366878,87.933598 38.8366878,87.019531 Z M55.5046476,67.919434 L55.6950773,67.919434 C56.4060184,67.944824 57.0471252,67.95752 57.6184171,67.95752 L58.4563078,62.073242 C58.5070893,61.679686 58.5705652,61.349611 58.6467375,61.083008 C58.8752542,60.245113 59.3386285,59.826172 60.0368742,59.826172 C60.1765233,59.826172 60.3161704,59.838867 60.4558195,59.864258 C61.0398068,60.003907 61.3317961,60.556148 61.3317961,61.520996 C61.3317961,61.825685 61.0778923,63.971171 60.5700773,67.95752 L62.569589,67.95752 C62.9123642,67.95752 63.210701,68.027343 63.4646086,68.166992 C63.9089467,68.433595 64.1311125,68.827146 64.1311125,69.347656 C64.1311125,69.576173 64.0739841,69.791991 63.9597257,69.995117 C63.6677321,70.477541 63.1916626,70.71875 62.5315031,70.71875 L60.170175,70.71875 C59.1799356,78.335976 58.6848234,82.607906 58.6848234,83.534668 C58.6848234,84.118655 58.8054277,84.664548 59.0466398,85.172363 C59.4021103,85.934086 59.8718322,86.314941 60.4558195,86.314941 C60.5954686,86.314941 60.7414633,86.295899 60.8938078,86.257812 C61.2365829,86.168945 61.7253476,85.876956 62.3601164,85.381836 C62.9821898,84.886716 63.5026924,84.63916 63.9216398,84.63916 C64.0993751,84.63916 64.2707601,84.677246 64.4358,84.753418 C64.8928335,84.981935 65.1213468,85.331052 65.1213468,85.800781 C65.0832607,86.460941 64.5944961,87.146481 63.6550382,87.857422 C62.5124544,88.682621 61.3000642,89.095215 60.0178312,89.095215 C58.760989,89.082519 57.732679,88.555669 56.9328703,87.514648 C56.1203662,86.410151 55.7141203,85.020028 55.7141203,83.344238 C55.7141203,82.976072 56.2155801,78.767618 57.2185148,70.71875 L55.276132,70.71875 C54.400151,70.642578 53.9621671,70.185551 53.9621671,69.347656 C53.9621671,69.119139 54.0002527,68.909669 54.076425,68.719238 C54.3049417,68.186032 54.7810112,67.919434 55.5046476,67.919434 Z M67.3356934,74.241699 C67.3356934,74.609865 67.2722174,75.403314 67.1452637,76.62207 C66.751707,80.227557 66.5549316,82.468257 66.5549316,83.344238 C66.5549316,83.928226 66.6755359,84.474119 66.916748,84.981934 C67.2722186,85.743656 67.748288,86.124512 68.3449707,86.124512 C68.4719245,86.124512 68.6052239,86.111817 68.744873,86.086426 C69.113039,85.997558 69.6462367,85.699221 70.3444824,85.191406 C71.0300327,84.683591 71.5822733,84.429688 72.0012207,84.429688 C72.178956,84.429688 72.3566886,84.493163 72.5344238,84.620117 C72.8898944,84.874025 73.067627,85.210447 73.067627,85.629395 C73.0168454,86.276859 72.5153856,86.962399 71.5632324,87.686035 C70.3952578,88.498539 69.1701724,88.904785 67.8879395,88.904785 C66.8088325,88.904785 65.9138219,88.530277 65.2028809,87.78125 C64.1364693,86.638666 63.6032715,84.823255 63.6032715,82.334961 C63.6032715,81.484371 63.7746565,79.821301 64.1174316,77.345703 C64.2697762,76.190424 64.3776852,75.339846 64.4411621,74.793945 L64.479248,74.451172 C64.6823741,73.181634 65.2028767,72.546875 66.0407715,72.546875 C66.1804206,72.546875 66.3200677,72.55957 66.4597168,72.584961 C67.0437041,72.72461 67.3356934,73.276851 67.3356934,74.241699 Z M65.1647949,69.252441 C65.1647949,69.023925 65.2155757,68.808106 65.3171387,68.60498 C65.5710462,68.109861 65.9836397,67.862305 66.5549316,67.862305 C66.7834484,67.862305 66.9992666,67.913085 67.2023926,68.014648 C67.6975122,68.268556 67.9450684,68.681149 67.9450684,69.252441 C67.9450684,69.480958 67.8942876,69.696776 67.7927246,69.899902 C67.5388171,70.395022 67.1262236,70.642578 66.5549316,70.642578 C66.3264149,70.642578 66.1105967,70.591797 65.9074707,70.490234 C65.412351,70.236327 65.1647949,69.823733 65.1647949,69.252441 Z M71.4352938,87.019531 L73.0539461,74.793945 C73.0793369,74.578124 73.1110749,74.375001 73.149161,74.18457 C73.3776777,73.092768 73.87279,72.546875 74.6345125,72.546875 C74.7741617,72.546875 74.9138087,72.55957 75.0534579,72.584961 C75.6374452,72.72461 75.9294344,73.276851 75.9294344,74.241699 C75.9294344,74.381348 75.9167392,74.622557 75.8913485,74.965332 C75.8786531,75.193849 75.8723055,75.371581 75.8723055,75.498535 C75.8976963,75.447754 75.9294342,75.396973 75.9675204,75.346191 C76.9069782,73.683097 78.2463203,72.851562 79.9855868,72.851562 C80.6076602,72.851562 81.1789435,73.035643 81.6994539,73.403809 C82.4738719,73.975101 82.861075,74.730464 82.861075,75.669922 C82.861075,75.822266 82.8547275,76.184079 82.8420321,76.755371 C82.8293367,78.050299 82.8229891,79.078609 82.8229891,79.840332 C82.8229891,82.430189 82.8991602,83.953611 83.0515047,84.410645 C83.0895909,84.512208 83.1276764,84.620117 83.1657625,84.734375 C83.5212331,85.699224 84.0226929,86.181641 84.6701571,86.181641 C84.7844155,86.181641 84.9113673,86.168945 85.0510164,86.143555 C85.4318777,86.067382 85.9777707,85.769046 86.6887118,85.248535 C87.3869574,84.753415 87.9455456,84.505859 88.364493,84.505859 C88.5295329,84.505859 88.6882227,84.550293 88.8405672,84.63916 C89.2341239,84.867677 89.4308993,85.242185 89.4308993,85.762695 C89.354727,86.384769 88.8215292,87.070309 87.8312899,87.819336 C86.6633153,88.606449 85.4890106,89 84.3083407,89 C83.3561875,89 82.5500432,88.739749 81.8898836,88.219238 C80.5314784,87.127436 79.852286,84.734393 79.852286,81.040039 C79.852286,80.773436 79.8586336,80.3418 79.8713289,79.745117 C79.8967197,79.123044 79.9094149,78.602541 79.9094149,78.183594 C79.9094149,76.825189 79.7570727,76.126953 79.4523836,76.088867 C79.4016021,76.088867 79.3381262,76.101562 79.2619539,76.126953 C78.5383175,76.393556 77.611569,77.83446 76.4816805,80.449707 C75.4914412,82.74757 74.8566819,84.658196 74.5773836,86.181641 L74.5392977,86.733887 C74.5012116,87.19092 74.3742597,87.609861 74.1584383,87.990723 C73.7902724,88.600101 73.3332457,88.904785 72.7873446,88.904785 C72.6350001,88.904785 72.4826578,88.873047 72.3303133,88.80957 C71.7336307,88.530272 71.4352938,87.933598 71.4352938,87.019531 Z M87.5890934,86.962402 L90.8263981,62.130371 C91.0168288,60.657707 91.543679,59.915039 92.4069645,59.902344 C92.6100906,59.902344 92.8005183,59.927734 92.9782536,59.978516 C93.4606779,60.156251 93.7018864,60.689449 93.7018864,61.578125 C93.7018864,62.669927 93.1750362,67.310018 92.12132,75.498535 C93.0607778,73.848136 94.4001199,73.016602 96.1393864,73.003906 C96.7614598,73.003906 97.3390908,73.200682 97.8722966,73.594238 C98.6340191,74.152835 99.0148747,74.895503 99.0148747,75.822266 L99.0148747,76.888672 C99.0021793,78.196296 98.9958317,79.230953 98.9958317,79.992676 C98.9958317,82.620619 99.0656552,84.144041 99.2053044,84.562988 C99.2306951,84.651856 99.2624331,84.74707 99.3005192,84.848633 C99.6813805,85.851568 100.189188,86.353027 100.823957,86.353027 C100.95091,86.353027 101.08421,86.340332 101.223859,86.314941 C101.592025,86.226074 102.13157,85.927737 102.842511,85.419922 C103.540757,84.912107 104.099345,84.658203 104.518293,84.658203 C104.670637,84.658203 104.822979,84.702636 104.975324,84.791504 C105.381576,85.032716 105.584699,85.413572 105.584699,85.934082 C105.584699,85.972168 105.578351,86.022949 105.565656,86.086426 C105.476788,86.695804 104.949938,87.330563 103.98509,87.990723 C102.80442,88.777836 101.636463,89.171387 100.481183,89.171387 C100.02415,89.171387 99.5925134,89.114258 99.1862614,89 C97.078829,88.377927 96.0251286,86.194355 96.0251286,82.449219 C96.0251286,82.131834 96.0378238,81.636722 96.0632145,80.963867 C96.1013007,80.164059 96.1203434,79.541994 96.1203434,79.097656 C96.1203434,77.218741 95.955306,76.266602 95.6252263,76.241211 C95.5617494,76.241211 95.4919259,76.253906 95.4157536,76.279297 C94.6921172,76.558595 93.7717162,77.980456 92.6545231,80.544922 C91.6769792,82.83009 91.0485675,84.75341 90.7692692,86.314941 C90.7184877,86.568849 90.6930974,86.765624 90.6930974,86.905273 C90.6550112,87.362307 90.5280594,87.774901 90.312238,88.143066 C89.9567675,88.752444 89.5060884,89.057129 88.9601872,89.057129 C88.8078427,89.057129 88.6555005,89.025391 88.5031559,88.961914 C87.8937779,88.708007 87.5890934,88.11768 87.5890934,87.190918 L87.5890934,86.962402 Z M109.036838,73.003906 C109.481177,73.016602 109.900118,73.061035 110.293674,73.137207 C112.248762,73.556154 113.448457,75.079577 113.892795,77.70752 C114.134008,77.56787 114.533906,77.307619 115.092502,76.926758 C115.854225,76.406247 116.431856,76.145996 116.825413,76.145996 C117.015843,76.145996 117.199923,76.203124 117.377659,76.317383 C117.771215,76.57129 117.967991,76.91406 117.967991,77.345703 C117.955295,77.777346 117.676001,78.253415 117.1301,78.773926 C116.355682,79.484867 115.352763,80.087888 114.121311,80.583008 C114.108616,82.563486 113.810279,84.239251 113.226292,85.610352 C112.274138,87.844738 110.712631,88.961914 108.541721,88.961914 C107.767303,88.961914 106.992897,88.714358 106.218479,88.219238 C104.428431,87.038568 103.53342,84.912125 103.53342,81.839844 C103.53342,79.986319 103.844452,78.297859 104.466526,76.774414 C105.44407,74.374988 106.967492,73.118165 109.036838,73.003906 Z M111.41721,81.078125 C110.92209,81.06543 110.452368,81.014649 110.00803,80.925781 C108.33224,80.570311 107.253149,79.681648 106.770725,78.259766 C106.440645,79.326177 106.275608,80.487787 106.275608,81.744629 C106.275608,82.354007 106.332736,82.944333 106.446995,83.515625 C106.802465,85.254892 107.576872,86.124512 108.770237,86.124512 C109.163794,86.124512 109.519259,86.003907 109.836643,85.762695 C110.763406,85.051754 111.290256,83.490246 111.41721,81.078125 Z M111.131565,78.488281 L111.398167,78.488281 C111.207736,76.749015 110.750709,75.873047 110.027073,75.860352 C109.963596,75.860352 109.90012,75.866699 109.836643,75.879395 C109.557345,75.980958 109.417698,76.190428 109.417698,76.507812 C109.417698,76.787111 109.462131,77.060057 109.550999,77.32666 C109.830297,78.101078 110.357147,78.488281 111.131565,78.488281 Z" id="Cantinho" fill-opacity="0.87" fill="#000000"></path>
            <path d="M283.430691,82.944336 C283.430691,82.512693 283.456081,82.055666 283.506863,81.573242 C283.773466,79.402333 284.459006,77.472665 285.563503,75.78418 C286.909213,73.714833 288.527849,72.680176 290.41946,72.680176 C291.07962,72.680176 291.720727,72.80078 292.3428,73.041992 L293.885281,62.073242 C294.088407,60.587883 294.621605,59.838867 295.48489,59.826172 C295.624539,59.826172 295.764186,59.838867 295.903835,59.864258 C296.487823,60.003907 296.779812,60.556148 296.779812,61.520996 C296.779812,61.914553 296.506865,64.148905 295.960964,68.224121 C294.729513,77.504441 294.113796,82.607906 294.113796,83.534668 C294.113796,84.118655 294.234401,84.664548 294.475613,85.172363 C294.831083,85.934086 295.307153,86.314941 295.903835,86.314941 C296.018094,86.314941 296.138698,86.302246 296.265652,86.276855 C296.646513,86.200683 297.198754,85.908694 297.92239,85.400879 C298.633331,84.893064 299.198267,84.63916 299.617214,84.63916 C299.79495,84.63916 299.959987,84.702636 300.112332,84.82959 C300.417021,85.083497 300.569363,85.407225 300.569363,85.800781 C300.518581,86.460941 300.023469,87.152828 299.084011,87.876465 C297.941427,88.688969 296.729037,89.095215 295.446804,89.095215 C293.859882,89.082519 292.660187,88.282723 291.847683,86.695801 C291.657252,86.924318 291.441434,87.146483 291.200222,87.362305 C289.981466,88.479498 288.743685,89.038086 287.486843,89.038086 C286.687035,89.038086 285.995147,88.834963 285.41116,88.428711 C284.090841,87.514644 283.430691,85.686537 283.430691,82.944336 Z M290.209988,84.239258 C290.375028,83.998046 290.578151,83.369634 290.819363,82.354004 C291.327178,80.157704 291.714381,77.853528 291.980984,75.441406 C291.68899,75.301757 291.384306,75.212891 291.066921,75.174805 C290.838405,75.174805 290.603544,75.206543 290.362332,75.27002 C289.181662,75.600099 288.185089,76.691885 287.372585,78.54541 C286.648949,80.208504 286.287136,81.877921 286.287136,83.553711 C286.287136,83.69336 286.293484,83.833007 286.306179,83.972656 C286.369656,85.381843 286.763207,86.086426 287.486843,86.086426 C287.855009,86.07373 288.318383,85.870607 288.87698,85.477051 C289.473663,85.045408 289.917994,84.632814 290.209988,84.239258 Z M303.850116,73.003906 C304.294454,73.016602 304.713395,73.061035 305.106951,73.137207 C307.062039,73.556154 308.261734,75.079577 308.706073,77.70752 C308.947285,77.56787 309.347183,77.307619 309.90578,76.926758 C310.667502,76.406247 311.245133,76.145996 311.63869,76.145996 C311.82912,76.145996 312.013201,76.203124 312.190936,76.317383 C312.584493,76.57129 312.781268,76.91406 312.781268,77.345703 C312.768573,77.777346 312.489278,78.253415 311.943377,78.773926 C311.168959,79.484867 310.16604,80.087888 308.934588,80.583008 C308.921893,82.563486 308.623556,84.239251 308.039569,85.610352 C307.087415,87.844738 305.525908,88.961914 303.354998,88.961914 C302.58058,88.961914 301.806174,88.714358 301.031756,88.219238 C299.241708,87.038568 298.346698,84.912125 298.346698,81.839844 C298.346698,79.986319 298.65773,78.297859 299.279803,76.774414 C300.257347,74.374988 301.780769,73.118165 303.850116,73.003906 Z M306.230487,81.078125 C305.735367,81.06543 305.265645,81.014649 304.821307,80.925781 C303.145517,80.570311 302.066427,79.681648 301.584002,78.259766 C301.253922,79.326177 301.088885,80.487787 301.088885,81.744629 C301.088885,82.354007 301.146013,82.944333 301.260272,83.515625 C301.615742,85.254892 302.390149,86.124512 303.583514,86.124512 C303.977071,86.124512 304.332536,86.003907 304.64992,85.762695 C305.576683,85.051754 306.103533,83.490246 306.230487,81.078125 Z M305.944842,78.488281 L306.211444,78.488281 C306.021013,76.749015 305.563986,75.873047 304.84035,75.860352 C304.776873,75.860352 304.713397,75.866699 304.64992,75.879395 C304.370622,75.980958 304.230975,76.190428 304.230975,76.507812 C304.230975,76.787111 304.275408,77.060057 304.364276,77.32666 C304.643574,78.101078 305.170424,78.488281 305.944842,78.488281 Z M327.112305,83.020508 C327.112305,82.588865 327.137695,82.131838 327.188477,81.649414 C327.455079,79.465809 328.140619,77.529794 329.245117,75.841309 C330.590827,73.784658 332.209463,72.756348 334.101074,72.756348 C334.913578,72.756348 335.624509,72.915037 336.233887,73.232422 C336.487794,72.927733 336.836912,72.769043 337.28125,72.756348 C337.535158,72.756348 337.693847,72.77539 337.757324,72.813477 C338.303225,72.991212 338.576172,73.530757 338.576172,74.432129 C338.576172,74.800295 338.512696,75.593744 338.385742,76.8125 C337.992186,80.417987 337.79541,82.658687 337.79541,83.534668 C337.79541,84.118655 337.916014,84.664548 338.157227,85.172363 C338.512697,85.934086 338.982419,86.314941 339.566406,86.314941 C339.680665,86.314941 339.801269,86.302246 339.928223,86.276855 C340.309084,86.200683 340.854977,85.908694 341.565918,85.400879 C342.264164,84.893064 342.822752,84.63916 343.241699,84.63916 C343.406739,84.63916 343.578124,84.696288 343.755859,84.810547 C344.124025,85.064454 344.308105,85.400877 344.308105,85.819824 C344.270019,86.479984 343.76856,87.165524 342.803711,87.876465 C341.648432,88.688969 340.423346,89.095215 339.128418,89.095215 C337.528801,89.082519 336.348148,88.276375 335.586426,86.676758 C335.408691,86.892579 335.205568,87.108397 334.977051,87.324219 C333.720209,88.504889 332.444342,89.095215 331.149414,89.095215 C330.33691,89.095215 329.632327,88.885744 329.035645,88.466797 C327.753412,87.527339 327.112305,85.711928 327.112305,83.020508 Z M335.491211,76.755371 L335.624512,75.460449 C335.345213,75.3208 335.053224,75.250977 334.748535,75.250977 C334.520018,75.250977 334.285157,75.282715 334.043945,75.346191 C332.863275,75.676271 331.866703,76.768057 331.054199,78.621582 C330.330563,80.284676 329.96875,81.954093 329.96875,83.629883 L329.96875,83.820312 C330.006836,85.369148 330.400387,86.143555 331.149414,86.143555 C331.542971,86.130859 332.025388,85.915041 332.59668,85.496094 C333.180667,85.077146 333.605956,84.683596 333.872559,84.31543 C334.037598,84.074218 334.259764,83.369635 334.539062,82.20166 C335.046878,80.030751 335.364257,78.215339 335.491211,76.755371 Z M347.036612,86.695801 C346.985831,87.152834 346.852531,87.565428 346.63671,87.933594 C346.268544,88.555667 345.80517,88.866699 345.246573,88.866699 C345.106924,88.866699 344.973625,88.841309 344.846671,88.790527 C344.211902,88.523924 343.894522,87.85108 343.894522,86.771973 L345.513175,74.755859 C345.538565,74.527343 345.576651,74.311524 345.627432,74.108398 C345.843254,73.054682 346.332019,72.527832 347.093741,72.527832 C347.258781,72.527832 347.417471,72.546875 347.569815,72.584961 C348.115716,72.737305 348.388663,73.276851 348.388663,74.203613 C348.388663,74.571779 348.36962,74.99072 348.331534,75.460449 C348.344229,75.435058 348.363272,75.403321 348.388663,75.365234 C349.340816,73.664054 350.692853,72.813477 352.444815,72.813477 C352.965326,72.813477 353.504871,72.953124 354.063468,73.232422 C354.926753,73.67676 355.472646,74.273434 355.701163,75.022461 C356.61523,73.65136 357.878401,72.959473 359.490714,72.946777 C360.112787,72.946777 360.690418,73.137205 361.223624,73.518066 C361.998042,74.076663 362.385245,74.825679 362.385245,75.765137 C362.385245,76.374515 362.378897,77.307611 362.366202,78.564453 C362.340811,79.948249 362.328116,81.008297 362.328116,81.744629 C362.328116,82.315921 362.340811,82.811033 362.366202,83.22998 C362.518547,85.223154 363.127915,86.219727 364.194327,86.219727 C364.321281,86.219727 364.45458,86.207031 364.594229,86.181641 C364.962395,86.092773 365.501941,85.794436 366.212882,85.286621 C366.911127,84.778806 367.469716,84.524902 367.888663,84.524902 C368.053703,84.524902 368.212393,84.575683 368.364737,84.677246 C368.758294,84.918458 368.955069,85.292966 368.955069,85.800781 C368.955069,85.838867 368.948722,85.889648 368.936026,85.953125 C368.847159,86.562503 368.320308,87.190915 367.35546,87.838379 C366.17479,88.638188 365.000485,89.038086 363.832511,89.038086 C362.880357,89.038086 362.074213,88.777835 361.414054,88.257324 C360.055648,87.165522 359.376456,84.772479 359.376456,81.078125 C359.376456,80.862304 359.382803,80.513186 359.395499,80.030762 C359.42089,79.332516 359.433585,78.729495 359.433585,78.22168 C359.433585,76.888665 359.281243,76.209473 358.976554,76.184082 C358.722646,76.184082 358.424309,76.380857 358.081534,76.774414 C357.192858,77.80274 356.240719,79.70067 355.225089,82.468262 L354.901358,85.724609 C354.825186,86.562504 354.717277,87.203611 354.577628,87.647949 C354.311025,88.511235 353.803217,88.942871 353.05419,88.942871 C352.851064,88.942871 352.660636,88.898438 352.482901,88.80957 C351.937,88.555663 351.664054,88.028813 351.664054,87.229004 C351.664054,86.454586 351.841786,85.064463 352.197257,83.058594 C352.679681,80.303697 352.920889,78.418462 352.920889,77.402832 C352.920889,77.136229 352.895499,76.901368 352.844718,76.698242 C352.743155,76.266599 352.476556,76.050781 352.044913,76.050781 C351.816396,76.063477 351.562492,76.196776 351.283194,76.450684 C350.343736,77.33936 349.302731,79.408675 348.160147,82.658691 C347.41112,84.778819 347.036612,86.124509 347.036612,86.695801 Z M372.654767,73.003906 L372.940412,73.022949 C373.207015,73.035645 373.467266,73.067383 373.721174,73.118164 C376.057123,73.575198 377.339336,75.606427 377.567853,79.211914 L377.815412,79.211914 C377.967756,79.211914 378.126446,79.205566 378.291486,79.192871 C379.472156,79.091308 380.481423,78.710453 381.319318,78.050293 C381.23045,78.012207 381.135237,77.961426 381.033674,77.897949 C379.700659,77.148922 379.034162,75.961922 379.034162,74.336914 C379.034162,73.803708 379.167461,73.295901 379.434064,72.813477 C379.992661,71.848628 380.881324,71.366211 382.10008,71.366211 C382.722153,71.366211 383.312479,71.531248 383.871076,71.861328 C384.785143,72.419925 385.24217,73.200679 385.24217,74.203613 C385.24217,74.711428 385.204084,75.231931 385.127912,75.765137 C385.623031,75.511229 386.295876,75.079593 387.146466,74.470215 C387.387679,74.305175 387.67332,74.216309 388.0034,74.203613 C388.409652,74.203613 388.78416,74.31787 389.126935,74.546387 C389.46971,74.774903 389.641095,74.997069 389.641095,75.212891 C389.641095,75.289063 389.596662,75.492186 389.507795,75.822266 C388.847635,78.00587 388.51756,79.922843 388.51756,81.573242 C388.51756,82.081057 388.625469,83.033196 388.841291,84.429688 C388.841291,84.442383 388.847638,84.455078 388.860334,84.467773 C389.241195,85.661139 389.78074,86.257812 390.478986,86.257812 C390.872543,86.232422 391.51365,85.953128 392.402326,85.419922 C393.176744,84.899411 393.754375,84.63916 394.135236,84.63916 C394.325667,84.63916 394.516094,84.702636 394.706525,84.82959 C395.0493,85.070802 395.220685,85.362791 395.220685,85.705566 C395.182599,86.403812 394.687487,87.12109 393.735334,87.857422 C392.59275,88.682621 391.38036,89.095215 390.098127,89.095215 C389.945782,89.095215 389.787092,89.088867 389.622052,89.076172 C388.212866,88.898437 387.178208,88.085945 386.518049,86.638672 C386.04832,85.813472 385.813459,84.353526 385.813459,82.258789 C385.813459,80.849602 385.934063,79.415046 386.175275,77.955078 C385.591288,78.234376 384.918443,78.418457 384.15672,78.507324 C382.97605,80.322763 380.779783,81.363768 377.567853,81.630371 C377.46629,83.255379 377.155258,84.645502 376.634748,85.800781 C375.69529,87.908214 374.203606,88.961914 372.15965,88.961914 L372.026349,88.961914 C371.239236,88.961914 370.458482,88.70801 369.684064,88.200195 C367.906712,87.00683 367.018049,84.886734 367.018049,81.839844 C367.018049,78.272443 367.919407,75.727058 369.72215,74.203613 C370.623522,73.441891 371.569313,73.041992 372.559552,73.003906 L372.654767,73.003906 Z M374.863752,81.458984 C374.279764,81.319335 373.714829,81.116212 373.168927,80.849609 C371.785131,80.138668 370.83934,79.167487 370.331525,77.936035 C369.950664,79.027837 369.760236,80.297356 369.760236,81.744629 C369.760236,82.366702 369.817364,82.963376 369.931623,83.534668 C370.299789,85.261239 371.074195,86.124512 372.254865,86.124512 C372.445296,86.124512 372.629376,86.092774 372.807111,86.029297 C373.96239,85.648436 374.64793,84.125013 374.863752,81.458984 Z M372.902326,76.507812 C372.902326,76.787111 373.003887,77.098143 373.207013,77.440918 C373.613265,78.101078 374.178201,78.551757 374.901838,78.792969 C374.863751,78.386717 374.812971,78.005861 374.749494,77.650391 C374.495586,76.457025 374.08934,75.860352 373.530744,75.860352 C373.467267,75.860352 373.403791,75.866699 373.340314,75.879395 C373.048321,75.980958 372.902326,76.190428 372.902326,76.507812 Z M381.319318,74.470215 C381.332013,75.181156 381.776345,75.688963 382.652326,75.993652 C382.77928,75.549314 382.842756,75.041507 382.842756,74.470215 C382.842756,74.394043 382.83006,74.311524 382.80467,74.222656 C382.715802,73.879881 382.480941,73.708496 382.10008,73.708496 C382.036603,73.708496 381.960432,73.721191 381.871564,73.746582 C381.503398,73.848145 381.319318,74.089354 381.319318,74.470215 Z" id="do-amor" fill-opacity="0.87" fill="#000000"></path>
        </g>
    </g>
</svg>