<?xml version="1.0" encoding="UTF-8" standalone="no"?>
<svg width="87px" height="89px" viewBox="0 0 87 89" version="1.1" xmlns="http://www.w3.org/2000/svg" xmlns:xlink="http://www.w3.org/1999/xlink">
    <!-- Generator: Sketch 44.1 (41455) - http://www.bohemiancoding.com/sketch -->
    <title>microphone</title>
    <desc>Created with Sketch.</desc>
    <defs>
        <filter x="-15.9%" y="-14.5%" width="155.1%" height="158.0%" filterUnits="objectBoundingBox" id="filter-1">
            <feOffset dx="8" dy="11" in="SourceAlpha" result="shadowOffsetOuter1"></feOffset>
            <feGaussianBlur stdDeviation="4.5" in="shadowOffsetOuter1" result="shadowBlurOuter1"></feGaussianBlur>
            <feColorMatrix values="0 0 0 0 0   0 0 0 0 0   0 0 0 0 0  0 0 0 0.5 0" type="matrix" in="shadowBlurOuter1" result="shadowMatrixOuter1"></feColorMatrix>
            <feMerge>
                <feMergeNode in="shadowMatrixOuter1"></feMergeNode>
                <feMergeNode in="SourceGraphic"></feMergeNode>
            </feMerge>
        </filter>
    </defs>
    <g id="Page-1" stroke="none" stroke-width="1" fill="none" fill-rule="evenodd">
        <g id="Tablet-Portrait" transform="translate(-350.000000, -1220.000000)" fill-rule="nonzero">
            <g id="Group-7" transform="translate(311.000000, 1220.000000)">
                <g id="microphone" filter="url(#filter-1)" transform="translate(74.500000, 34.500000) scale(-1, 1) translate(-74.500000, -34.500000) translate(40.000000, 0.000000)">
                    <path d="M38.8497471,45.222021 L14.0871499,66.5164825 C10.1143981,70.3684196 5.21572131,69.2037832 2.41306089,66.1325594 C-0.261295082,63.2403497 -1.05843091,58.659007 2.51599532,54.9991119 L23.9100351,30.351958 C24.8999508,29.2130559 26.6228501,29.0851888 27.7670867,30.0704895 L39.1326956,41.3831119 C40.1224496,42.5218531 39.9939836,44.2367203 38.8497471,45.222021 Z" id="Shape" fill="#58718C"></path>
                    <path d="M38.8497471,45.222021 L14.0871499,66.5164825 C10.1143981,70.3684196 5.21572131,69.2037832 2.41306089,66.1325594 L33.205644,35.4835315 L39.1328571,41.3831119 C40.1224496,42.5218531 39.9939836,44.2367203 38.8497471,45.222021 Z" id="Shape" fill="#50667F"></path>
                    <path d="M55.6825152,32.2617622 C58.7526112,31.657007 61.6829297,30.1735874 64.0623794,27.8053916 C70.4530398,21.4445245 70.4530398,11.1315175 64.0623794,4.77065035 C57.671719,-1.59021678 47.3104075,-1.59021678 40.9197471,4.77065035 C38.5402974,7.13900699 37.0500913,10.0553427 36.4425035,13.1114476 L55.6825152,32.2617622 Z" id="Shape" fill="#C4CAD9"></path>
                    <path d="M55.6825152,32.2617622 C58.7526112,31.657007 61.6829297,30.1735874 64.0623794,27.8053916 C70.4530398,21.4445245 70.4530398,11.1315175 64.0623794,4.77065035 L46.0625902,22.6865245 L55.6825152,32.2617622 Z" id="Shape" fill="#B8BFCC"></path>
                    <path d="M40.9195855,50.839972 L17.7771148,27.8052308 C16.7120585,26.7451399 16.7120585,25.0262517 17.7771148,23.9661608 L33.2054824,8.60972028 C34.2705386,7.54962937 35.9974778,7.54962937 37.062534,8.60972028 L60.2051663,31.6444615 C61.2702225,32.7045524 61.2702225,34.4234406 60.2051663,35.4835315 L44.7767986,50.839972 C43.7117424,51.9002238 41.9848033,51.9002238 40.9195855,50.839972 Z" id="Shape" fill="#E55639"></path>
                    <path d="M60.2051663,31.6444615 L48.6338501,20.1270909 L29.3484309,39.3226014 L40.9197471,50.839972 C41.9848033,51.9000629 43.7117424,51.9000629 44.7767986,50.839972 L60.2051663,35.4835315 C61.2702225,34.4232797 61.2702225,32.7045524 60.2051663,31.6444615 Z" id="Shape" fill="#CF4529"></path>
                    <path d="M45.168822,35.0780559 C44.0960094,36.1458671 42.3868454,36.1458671 41.3141944,35.0780559 L33.5866792,27.3865664 C32.5138665,26.3187552 32.5138665,24.5995455 33.5866792,23.5499091 C34.6594918,22.4820979 36.3686557,22.4820979 37.4413068,23.5499091 L45.168822,31.2413986 C46.2417963,32.2911958 46.2417963,34.0102448 45.168822,35.0780559 Z" id="Shape" fill="#E6EEFF"></path>
                    <path d="M45.168822,35.0780559 C44.0960094,36.1458671 42.3868454,36.1458671 41.3141944,35.0780559 L37.4595667,31.2413986 L41.3141944,27.4047413 L45.168822,31.2413986 C46.2417963,32.2911958 46.2417963,34.0102448 45.168822,35.0780559 Z" id="Shape" fill="#DAE2F2"></path>
                </g>
            </g>
        </g>
    </g>
</svg>