<?xml version="1.0" encoding="UTF-8" standalone="no"?>
<svg width="86px" height="118px" viewBox="0 0 86 118" version="1.1" xmlns="http://www.w3.org/2000/svg" xmlns:xlink="http://www.w3.org/1999/xlink">
    <!-- Generator: Sketch 44.1 (41455) - http://www.bohemiancoding.com/sketch -->
    <title>man</title>
    <desc>Created with Sketch.</desc>
    <defs></defs>
    <g id="Page-1" stroke="none" stroke-width="1" fill="none" fill-rule="evenodd">
        <g id="Tablet-Portrait" transform="translate(-474.000000, -322.000000)" fill-rule="nonzero">
            <g id="Group-5" transform="translate(0.000000, -1.000000)">
                <g id="Header" transform="translate(317.000000, 264.000000)">
                    <g id="Group-3" transform="translate(0.000000, 59.000000)">
                        <g id="man" transform="translate(157.000000, 0.000000)">
                            <g id="Body" transform="translate(0.000000, 95.238579)">
                                <path d="M43.1946944,0.367177665 L43.1946944,22.5523756 L0.536305556,22.5523756 C0.536305556,13.5729949 23.0055972,0.367177665 43.1946944,0.367177665 Z" id="Shape" fill="#D58E64"></path>
                                <path d="M43.1946944,0.367177665 L43.1946944,22.5523756 L85.8524861,22.5523756 C85.8524861,13.5729949 63.3825972,0.367177665 43.1946944,0.367177665 Z" id="Shape" fill="#D58E64"></path>
                                <path d="M43.1946944,0.367177665 C38.9006667,0.367177665 34.5039167,0.96915736 30.2415417,1.99701523 C30.2702083,2.03475127 34.96975,8.1144467 43.1946944,8.1144467 C50.8116667,8.1144467 55.8755139,2.90807107 56.6095,2.10662944 C52.2031944,1.00988832 47.6434028,0.367177665 43.1946944,0.367177665 Z" id="Shape" fill="#BF805A"></path>
                                <path d="M24.4944722,3.65919797 C11.2325556,8.15278173 0.536902778,16.3570761 0.536902778,22.5523756 L24.4956667,22.5523756 L24.4956667,3.65919797 L24.4944722,3.65919797 Z" id="Shape" fill="#744A25"></path>
                                <path d="M25.7707361,22.5523756 L25.7707361,2.30369543 C25.7707361,2.30369543 22.3474583,3.62445685 21.1625694,4.2402132 L17.6688194,22.5517766 L25.7707361,22.5517766 L25.7707361,22.5523756 Z" id="Shape" fill="#573514"></path>
                                <path d="M61.8949167,3.65919797 C75.1568333,8.15278173 85.8524861,16.3570761 85.8524861,22.5523756 L61.8937222,22.5523756 L61.8937222,3.65919797 L61.8949167,3.65919797 Z" id="Shape" fill="#744A25"></path>
                                <path d="M60.6180556,22.5523756 L60.6180556,2.30369543 C60.6180556,2.30369543 64.0413333,3.62445685 65.2262222,4.2402132 L68.7199722,22.5517766 L60.6180556,22.5517766 L60.6180556,22.5523756 Z" id="Shape" fill="#573514"></path>
                            </g>
                            <g id="Neck" transform="translate(34.041667, 87.451777)">
                                <rect id="Rectangle-path" fill="#FDCC9B" x="0.375055556" y="0.231208122" width="17.5553472" height="8.75356345"></rect>
                                <path d="M0.375055556,8.92187817 C0.375055556,8.92187817 2.94251389,12.115665 9.15243056,12.115665 C15.3623472,12.115665 17.9304028,8.92187817 17.9304028,8.92187817 C17.9304028,8.92187817 8.82336111,5.59691371 0.375055556,8.92187817 Z" id="Shape" fill="#FDCC9B"></path>
                                <path d="M0.375055556,3.15305584 C0.375055556,3.15305584 7.75970833,7.27047716 17.9304028,6.17852792 L17.9304028,3.22613198 L0.375055556,3.15305584 Z" id="Shape" fill="#FCBC85"></path>
                            </g>
                            <g id="Face">
                                <ellipse id="Oval" fill="#FCBC85" cx="9.10286111" cy="57.1048122" rx="8.56595833" ry="9.8017868"></ellipse>
                                <ellipse id="Oval" fill="#FCBC85" cx="77.2859306" cy="57.1048122" rx="8.56595833" ry="9.8017868"></ellipse>
                                <path d="M77.2518889,38.3829442 C77.2518889,23.9450152 66.7186806,13.3813198 43.1946944,13.3813198 C19.6707083,13.3813198 9.1375,23.9456142 9.1375,38.3829442 C9.1375,52.8208731 6.67993056,90.8522132 43.1946944,90.8522132 C79.7094583,90.8522132 77.2518889,52.8214721 77.2518889,38.3829442 Z" id="Shape" fill="#FDCC9B"></path>
                                <g id="Group" transform="translate(20.305556, 39.532995)">
                                    <g transform="translate(2.388889, 10.781726)" id="Oval">
                                        <ellipse fill="#3B2519" cx="3.91180556" cy="4.44326904" rx="3.68665278" ry="4.04973604"></ellipse>
                                        <ellipse fill="#FFFFFF" cx="2.30468056" cy="2.65529949" rx="1.10247222" ry="1.10572589"></ellipse>
                                    </g>
                                    <path d="M0.403125,5.18840609 C2.14641667,6.06292386 4.94559722,2.21744162 11.3531944,5.56277157 C12.5213611,6.17253807 13.2183194,0.346812183 6.35026389,0.346812183 C0.403125,0.346812183 -0.650375,4.66070051 0.403125,5.18840609 Z" id="Shape" fill="#86461B"></path>
                                    <g transform="translate(35.833333, 10.781726)" id="Oval">
                                        <ellipse fill="#3B2519" cx="4.09933333" cy="4.44326904" rx="3.68665278" ry="4.04973604"></ellipse>
                                        <ellipse fill="#FFFFFF" cx="2.49220833" cy="2.65529949" rx="1.10247222" ry="1.10572589"></ellipse>
                                    </g>
                                    <path d="M45.3751528,5.18840609 C43.6318611,6.06292386 40.8326806,2.21744162 34.4250833,5.56277157 C33.2569167,6.17253807 32.5599583,0.346812183 39.4286111,0.346812183 C45.3751528,0.346812183 46.4280556,4.66070051 45.3751528,5.18840609 Z" id="Shape" fill="#86461B"></path>
                                </g>
                                <path d="M43.1946944,69.0018477 C39.5516389,69.0018477 37.3574444,66.2722741 37.3574444,67.5930355 C37.3574444,68.913198 38.4109444,71.4223452 43.1946944,71.4223452 C47.9784444,71.4223452 49.0319444,68.913198 49.0319444,67.5930355 C49.0319444,66.2728731 46.8371528,69.0018477 43.1946944,69.0018477 Z" id="Shape" fill="#FCBC85"></path>
                                <path d="M43.1946944,81.143868 C41.9345556,81.143868 41.1754861,80.199868 41.1754861,80.6568934 C41.1754861,81.1139188 41.5397917,81.9818477 43.1946944,81.9818477 C44.8495972,81.9818477 45.2133056,81.1139188 45.2133056,80.6568934 C45.2133056,80.199868 44.4542361,81.143868 43.1946944,81.143868 Z" id="Shape" fill="#FCBC85"></path>
                                <path d="M43.1946944,77.7793706 C37.42075,77.7793706 33.9419306,75.4211675 33.9419306,76.0189543 C33.9419306,76.6161421 35.6117639,78.9683553 43.1946944,78.9683553 C50.777625,78.9683553 52.4474583,76.6161421 52.4474583,76.0189543 C52.4468611,75.4205685 48.9686389,77.7793706 43.1946944,77.7793706 Z" id="Shape" fill="#F7945E"></path>
                                <path d="M43.1940972,83.3247716 L43.1940972,91.5122944 C24.8492222,91.5122944 18.7933889,81.7021218 16.9993333,78.9677563 C15.6693194,76.9389949 25.6303889,86.0980711 34.4167222,86.0980711 C38.2789583,86.0980711 38.103375,83.3247716 43.1940972,83.3247716 Z" id="Shape" fill="#86461B"></path>
                                <path d="M43.1940972,83.3247716 L43.1940972,91.5122944 C61.5395694,91.5122944 67.5954028,81.7021218 69.3888611,78.9677563 C70.718875,76.9389949 60.7578056,86.0980711 51.9714722,86.0980711 C48.1098333,86.0980711 48.2854167,83.3247716 43.1940972,83.3247716 Z" id="Shape" fill="#86461B"></path>
                                <path d="M43.4252222,28.8752589 L43.4252222,0 C13.3503056,0 7.73283333,11.2687005 6.32816667,32.3966904 C4.9235,53.5252792 8.09475,60.7987513 10.1957778,60.771797 C12.2968056,60.7442437 11.1674583,36.5488528 14.0526389,31.3400812 C19.3195417,21.8323959 28.7341528,28.8752589 43.4252222,28.8752589 Z" id="Shape" fill="#86461B"></path>
                                <path d="M42.4252222,28.8752589 L42.4252222,0 C72.5001389,0 78.1176111,11.2687005 79.5222778,32.3966904 C80.9269444,53.5252792 77.7556944,60.7987513 75.6546667,60.771797 C73.5536389,60.7442437 74.6829861,36.5488528 71.7978056,31.3400812 C66.5315,21.8323959 57.1162917,28.8752589 42.4252222,28.8752589 Z" id="Shape" fill="#86461B"></path>
                            </g>
                        </g>
                    </g>
                </g>
            </g>
        </g>
    </g>
</svg>